<mxfile host="app.diagrams.net" modified="2023-01-28T20:56:58.954Z" agent="5.0 (Windows NT 10.0; Win64; x64) AppleWebKit/537.36 (KHTML, like Gecko) Chrome/109.0.0.0 Safari/537.36" etag="UyILdjMw3LE8w5lrWk3m" version="20.8.9" type="github">
  <diagram name="Page-1" id="ApLP-SkBm4W3zUK7i_A_">
    <mxGraphModel dx="952" dy="976" grid="1" gridSize="10" guides="1" tooltips="1" connect="1" arrows="1" fold="1" page="1" pageScale="1" pageWidth="827" pageHeight="1169" math="0" shadow="0">
      <root>
        <mxCell id="0" />
        <mxCell id="1" parent="0" />
        <mxCell id="rRniwJY9JxLS7bqMXEcO-23" value="ANIMAL" style="swimlane;fontStyle=0;childLayout=stackLayout;horizontal=1;startSize=30;horizontalStack=0;resizeParent=1;resizeParentMax=0;resizeLast=0;collapsible=1;marginBottom=0;whiteSpace=wrap;html=1;" vertex="1" parent="1">
          <mxGeometry x="90" y="240" width="140" height="150" as="geometry" />
        </mxCell>
        <mxCell id="rRniwJY9JxLS7bqMXEcO-24" value="" style="shape=table;startSize=0;container=1;collapsible=1;childLayout=tableLayout;fixedRows=1;rowLines=0;fontStyle=0;align=center;resizeLast=1;strokeColor=none;fillColor=none;collapsible=0;" vertex="1" parent="rRniwJY9JxLS7bqMXEcO-23">
          <mxGeometry y="30" width="140" height="30" as="geometry" />
        </mxCell>
        <mxCell id="rRniwJY9JxLS7bqMXEcO-25" value="" style="shape=tableRow;horizontal=0;startSize=0;swimlaneHead=0;swimlaneBody=0;fillColor=none;collapsible=0;dropTarget=0;points=[[0,0.5],[1,0.5]];portConstraint=eastwest;top=0;left=0;right=0;bottom=1;" vertex="1" parent="rRniwJY9JxLS7bqMXEcO-24">
          <mxGeometry width="140" height="30" as="geometry" />
        </mxCell>
        <mxCell id="rRniwJY9JxLS7bqMXEcO-26" value="PK" style="shape=partialRectangle;connectable=0;fillColor=none;top=0;left=0;bottom=0;right=0;fontStyle=1;overflow=hidden;" vertex="1" parent="rRniwJY9JxLS7bqMXEcO-25">
          <mxGeometry width="30" height="30" as="geometry">
            <mxRectangle width="30" height="30" as="alternateBounds" />
          </mxGeometry>
        </mxCell>
        <mxCell id="rRniwJY9JxLS7bqMXEcO-27" value="prenom (partiel)" style="shape=partialRectangle;connectable=0;fillColor=none;top=0;left=0;bottom=0;right=0;align=left;spacingLeft=6;fontStyle=5;overflow=hidden;" vertex="1" parent="rRniwJY9JxLS7bqMXEcO-25">
          <mxGeometry x="30" width="110" height="30" as="geometry">
            <mxRectangle width="110" height="30" as="alternateBounds" />
          </mxGeometry>
        </mxCell>
        <mxCell id="rRniwJY9JxLS7bqMXEcO-31" value="sexe" style="text;strokeColor=none;fillColor=none;spacingLeft=4;spacingRight=4;overflow=hidden;rotatable=0;points=[[0,0.5],[1,0.5]];portConstraint=eastwest;fontSize=12;" vertex="1" parent="rRniwJY9JxLS7bqMXEcO-23">
          <mxGeometry y="60" width="140" height="30" as="geometry" />
        </mxCell>
        <mxCell id="rRniwJY9JxLS7bqMXEcO-34" value="dateNaissance    " style="text;strokeColor=none;fillColor=none;spacingLeft=4;spacingRight=4;overflow=hidden;rotatable=0;points=[[0,0.5],[1,0.5]];portConstraint=eastwest;fontSize=12;" vertex="1" parent="rRniwJY9JxLS7bqMXEcO-23">
          <mxGeometry y="90" width="140" height="30" as="geometry" />
        </mxCell>
        <mxCell id="rRniwJY9JxLS7bqMXEcO-35" value="dateArrivee" style="text;strokeColor=none;fillColor=none;spacingLeft=4;spacingRight=4;overflow=hidden;rotatable=0;points=[[0,0.5],[1,0.5]];portConstraint=eastwest;fontSize=12;" vertex="1" parent="rRniwJY9JxLS7bqMXEcO-23">
          <mxGeometry y="120" width="140" height="30" as="geometry" />
        </mxCell>
        <mxCell id="rRniwJY9JxLS7bqMXEcO-37" value="ESPECE" style="swimlane;fontStyle=0;childLayout=stackLayout;horizontal=1;startSize=30;horizontalStack=0;resizeParent=1;resizeParentMax=0;resizeLast=0;collapsible=1;marginBottom=0;whiteSpace=wrap;html=1;" vertex="1" parent="1">
          <mxGeometry x="310" y="255" width="140" height="150" as="geometry" />
        </mxCell>
        <mxCell id="rRniwJY9JxLS7bqMXEcO-38" value="" style="shape=table;startSize=0;container=1;collapsible=1;childLayout=tableLayout;fixedRows=1;rowLines=0;fontStyle=0;align=center;resizeLast=1;strokeColor=none;fillColor=none;collapsible=0;" vertex="1" parent="rRniwJY9JxLS7bqMXEcO-37">
          <mxGeometry y="30" width="140" height="30" as="geometry" />
        </mxCell>
        <mxCell id="rRniwJY9JxLS7bqMXEcO-39" value="" style="shape=tableRow;horizontal=0;startSize=0;swimlaneHead=0;swimlaneBody=0;fillColor=none;collapsible=0;dropTarget=0;points=[[0,0.5],[1,0.5]];portConstraint=eastwest;top=0;left=0;right=0;bottom=1;" vertex="1" parent="rRniwJY9JxLS7bqMXEcO-38">
          <mxGeometry width="140" height="30" as="geometry" />
        </mxCell>
        <mxCell id="rRniwJY9JxLS7bqMXEcO-40" value="PK" style="shape=partialRectangle;connectable=0;fillColor=none;top=0;left=0;bottom=0;right=0;fontStyle=1;overflow=hidden;" vertex="1" parent="rRniwJY9JxLS7bqMXEcO-39">
          <mxGeometry width="30" height="30" as="geometry">
            <mxRectangle width="30" height="30" as="alternateBounds" />
          </mxGeometry>
        </mxCell>
        <mxCell id="rRniwJY9JxLS7bqMXEcO-41" value="nomScientifique" style="shape=partialRectangle;connectable=0;fillColor=none;top=0;left=0;bottom=0;right=0;align=left;spacingLeft=6;fontStyle=5;overflow=hidden;" vertex="1" parent="rRniwJY9JxLS7bqMXEcO-39">
          <mxGeometry x="30" width="110" height="30" as="geometry">
            <mxRectangle width="110" height="30" as="alternateBounds" />
          </mxGeometry>
        </mxCell>
        <mxCell id="rRniwJY9JxLS7bqMXEcO-42" value="nomVulgaire" style="text;strokeColor=none;fillColor=none;align=left;verticalAlign=middle;spacingLeft=4;spacingRight=4;overflow=hidden;points=[[0,0.5],[1,0.5]];portConstraint=eastwest;rotatable=0;whiteSpace=wrap;html=1;" vertex="1" parent="rRniwJY9JxLS7bqMXEcO-37">
          <mxGeometry y="60" width="140" height="30" as="geometry" />
        </mxCell>
        <mxCell id="rRniwJY9JxLS7bqMXEcO-43" value="localisation[]" style="text;strokeColor=none;fillColor=none;align=left;verticalAlign=middle;spacingLeft=4;spacingRight=4;overflow=hidden;points=[[0,0.5],[1,0.5]];portConstraint=eastwest;rotatable=0;whiteSpace=wrap;html=1;" vertex="1" parent="rRniwJY9JxLS7bqMXEcO-37">
          <mxGeometry y="90" width="140" height="30" as="geometry" />
        </mxCell>
        <mxCell id="rRniwJY9JxLS7bqMXEcO-94" value="effectifTotal" style="text;strokeColor=none;fillColor=none;align=left;verticalAlign=middle;spacingLeft=4;spacingRight=4;overflow=hidden;points=[[0,0.5],[1,0.5]];portConstraint=eastwest;rotatable=0;whiteSpace=wrap;html=1;" vertex="1" parent="rRniwJY9JxLS7bqMXEcO-37">
          <mxGeometry y="120" width="140" height="30" as="geometry" />
        </mxCell>
        <mxCell id="rRniwJY9JxLS7bqMXEcO-45" value="" style="endArrow=open;endFill=1;endSize=12;html=1;rounded=0;startArrow=none;" edge="1" parent="1" source="rRniwJY9JxLS7bqMXEcO-23" target="rRniwJY9JxLS7bqMXEcO-37">
          <mxGeometry width="160" relative="1" as="geometry">
            <mxPoint x="260" y="315" as="sourcePoint" />
            <mxPoint x="650" y="410" as="targetPoint" />
            <Array as="points" />
          </mxGeometry>
        </mxCell>
        <mxCell id="rRniwJY9JxLS7bqMXEcO-76" value="appartient a" style="edgeLabel;html=1;align=center;verticalAlign=middle;resizable=0;points=[];" vertex="1" connectable="0" parent="rRniwJY9JxLS7bqMXEcO-45">
          <mxGeometry x="-0.2249" y="-3" relative="1" as="geometry">
            <mxPoint x="9" y="-33" as="offset" />
          </mxGeometry>
        </mxCell>
        <mxCell id="rRniwJY9JxLS7bqMXEcO-77" value="0..*" style="edgeLabel;html=1;align=center;verticalAlign=middle;resizable=0;points=[];labelBackgroundColor=none;" vertex="1" connectable="0" parent="rRniwJY9JxLS7bqMXEcO-45">
          <mxGeometry x="-0.8249" y="1" relative="1" as="geometry">
            <mxPoint y="-4" as="offset" />
          </mxGeometry>
        </mxCell>
        <mxCell id="rRniwJY9JxLS7bqMXEcO-78" value="1..1" style="edgeLabel;html=1;align=center;verticalAlign=middle;resizable=0;points=[];labelBackgroundColor=none;" vertex="1" connectable="0" parent="rRniwJY9JxLS7bqMXEcO-45">
          <mxGeometry x="0.8144" y="2" relative="1" as="geometry">
            <mxPoint x="-3" y="-13" as="offset" />
          </mxGeometry>
        </mxCell>
        <mxCell id="rRniwJY9JxLS7bqMXEcO-47" value="ENCLOS" style="swimlane;fontStyle=0;childLayout=stackLayout;horizontal=1;startSize=30;horizontalStack=0;resizeParent=1;resizeParentMax=0;resizeLast=0;collapsible=1;marginBottom=0;whiteSpace=wrap;html=1;" vertex="1" parent="1">
          <mxGeometry x="30" y="920" width="140" height="120" as="geometry" />
        </mxCell>
        <mxCell id="rRniwJY9JxLS7bqMXEcO-48" value="" style="shape=table;startSize=0;container=1;collapsible=1;childLayout=tableLayout;fixedRows=1;rowLines=0;fontStyle=0;align=center;resizeLast=1;strokeColor=none;fillColor=none;collapsible=0;" vertex="1" parent="rRniwJY9JxLS7bqMXEcO-47">
          <mxGeometry y="30" width="140" height="30" as="geometry" />
        </mxCell>
        <mxCell id="rRniwJY9JxLS7bqMXEcO-49" value="" style="shape=tableRow;horizontal=0;startSize=0;swimlaneHead=0;swimlaneBody=0;fillColor=none;collapsible=0;dropTarget=0;points=[[0,0.5],[1,0.5]];portConstraint=eastwest;top=0;left=0;right=0;bottom=1;" vertex="1" parent="rRniwJY9JxLS7bqMXEcO-48">
          <mxGeometry width="140" height="30" as="geometry" />
        </mxCell>
        <mxCell id="rRniwJY9JxLS7bqMXEcO-50" value="PK" style="shape=partialRectangle;connectable=0;fillColor=none;top=0;left=0;bottom=0;right=0;fontStyle=1;overflow=hidden;" vertex="1" parent="rRniwJY9JxLS7bqMXEcO-49">
          <mxGeometry width="30" height="30" as="geometry">
            <mxRectangle width="30" height="30" as="alternateBounds" />
          </mxGeometry>
        </mxCell>
        <mxCell id="rRniwJY9JxLS7bqMXEcO-51" value="ID" style="shape=partialRectangle;connectable=0;fillColor=none;top=0;left=0;bottom=0;right=0;align=left;spacingLeft=6;fontStyle=5;overflow=hidden;" vertex="1" parent="rRniwJY9JxLS7bqMXEcO-49">
          <mxGeometry x="30" width="110" height="30" as="geometry">
            <mxRectangle width="110" height="30" as="alternateBounds" />
          </mxGeometry>
        </mxCell>
        <mxCell id="rRniwJY9JxLS7bqMXEcO-52" value="designation" style="text;strokeColor=none;fillColor=none;align=left;verticalAlign=middle;spacingLeft=4;spacingRight=4;overflow=hidden;points=[[0,0.5],[1,0.5]];portConstraint=eastwest;rotatable=0;whiteSpace=wrap;html=1;" vertex="1" parent="rRniwJY9JxLS7bqMXEcO-47">
          <mxGeometry y="60" width="140" height="30" as="geometry" />
        </mxCell>
        <mxCell id="rRniwJY9JxLS7bqMXEcO-53" value="situation" style="text;strokeColor=none;fillColor=none;align=left;verticalAlign=middle;spacingLeft=4;spacingRight=4;overflow=hidden;points=[[0,0.5],[1,0.5]];portConstraint=eastwest;rotatable=0;whiteSpace=wrap;html=1;" vertex="1" parent="rRniwJY9JxLS7bqMXEcO-47">
          <mxGeometry y="90" width="140" height="30" as="geometry" />
        </mxCell>
        <mxCell id="rRniwJY9JxLS7bqMXEcO-55" value="FAMILLE" style="swimlane;fontStyle=0;childLayout=stackLayout;horizontal=1;startSize=30;horizontalStack=0;resizeParent=1;resizeParentMax=0;resizeLast=0;collapsible=1;marginBottom=0;whiteSpace=wrap;html=1;" vertex="1" parent="1">
          <mxGeometry x="570" y="300" width="140" height="60" as="geometry" />
        </mxCell>
        <mxCell id="rRniwJY9JxLS7bqMXEcO-56" value="" style="shape=table;startSize=0;container=1;collapsible=1;childLayout=tableLayout;fixedRows=1;rowLines=0;fontStyle=0;align=center;resizeLast=1;strokeColor=none;fillColor=none;collapsible=0;" vertex="1" parent="rRniwJY9JxLS7bqMXEcO-55">
          <mxGeometry y="30" width="140" height="30" as="geometry" />
        </mxCell>
        <mxCell id="rRniwJY9JxLS7bqMXEcO-57" value="" style="shape=tableRow;horizontal=0;startSize=0;swimlaneHead=0;swimlaneBody=0;fillColor=none;collapsible=0;dropTarget=0;points=[[0,0.5],[1,0.5]];portConstraint=eastwest;top=0;left=0;right=0;bottom=1;" vertex="1" parent="rRniwJY9JxLS7bqMXEcO-56">
          <mxGeometry width="140" height="30" as="geometry" />
        </mxCell>
        <mxCell id="rRniwJY9JxLS7bqMXEcO-58" value="PK" style="shape=partialRectangle;connectable=0;fillColor=none;top=0;left=0;bottom=0;right=0;fontStyle=1;overflow=hidden;" vertex="1" parent="rRniwJY9JxLS7bqMXEcO-57">
          <mxGeometry width="30" height="30" as="geometry">
            <mxRectangle width="30" height="30" as="alternateBounds" />
          </mxGeometry>
        </mxCell>
        <mxCell id="rRniwJY9JxLS7bqMXEcO-59" value="nomFamille" style="shape=partialRectangle;connectable=0;fillColor=none;top=0;left=0;bottom=0;right=0;align=left;spacingLeft=6;fontStyle=5;overflow=hidden;" vertex="1" parent="rRniwJY9JxLS7bqMXEcO-57">
          <mxGeometry x="30" width="110" height="30" as="geometry">
            <mxRectangle width="110" height="30" as="alternateBounds" />
          </mxGeometry>
        </mxCell>
        <mxCell id="rRniwJY9JxLS7bqMXEcO-71" value="" style="endArrow=open;endFill=1;endSize=12;html=1;rounded=0;" edge="1" parent="1" source="rRniwJY9JxLS7bqMXEcO-55" target="rRniwJY9JxLS7bqMXEcO-37">
          <mxGeometry width="160" relative="1" as="geometry">
            <mxPoint x="470" y="560" as="sourcePoint" />
            <mxPoint x="630" y="560" as="targetPoint" />
          </mxGeometry>
        </mxCell>
        <mxCell id="rRniwJY9JxLS7bqMXEcO-72" value="regroupe" style="edgeLabel;html=1;align=center;verticalAlign=middle;resizable=0;points=[];" vertex="1" connectable="0" parent="rRniwJY9JxLS7bqMXEcO-71">
          <mxGeometry x="0.0264" y="9" relative="1" as="geometry">
            <mxPoint as="offset" />
          </mxGeometry>
        </mxCell>
        <mxCell id="rRniwJY9JxLS7bqMXEcO-79" value="1..*" style="edgeLabel;html=1;align=center;verticalAlign=middle;resizable=0;points=[];labelBackgroundColor=none;" vertex="1" connectable="0" parent="rRniwJY9JxLS7bqMXEcO-71">
          <mxGeometry x="0.8499" y="-4" relative="1" as="geometry">
            <mxPoint y="-11" as="offset" />
          </mxGeometry>
        </mxCell>
        <mxCell id="rRniwJY9JxLS7bqMXEcO-80" value="1..1" style="edgeLabel;html=1;align=center;verticalAlign=middle;resizable=0;points=[];" vertex="1" connectable="0" parent="rRniwJY9JxLS7bqMXEcO-71">
          <mxGeometry x="-0.8358" relative="1" as="geometry">
            <mxPoint x="-10" as="offset" />
          </mxGeometry>
        </mxCell>
        <mxCell id="rRniwJY9JxLS7bqMXEcO-81" value="POPULATION" style="swimlane;fontStyle=0;childLayout=stackLayout;horizontal=1;startSize=30;horizontalStack=0;resizeParent=1;resizeParentMax=0;resizeLast=0;collapsible=1;marginBottom=0;whiteSpace=wrap;html=1;" vertex="1" parent="1">
          <mxGeometry x="430" y="470" width="140" height="60" as="geometry" />
        </mxCell>
        <mxCell id="rRniwJY9JxLS7bqMXEcO-130" value="" style="shape=table;startSize=0;container=1;collapsible=1;childLayout=tableLayout;fixedRows=1;rowLines=0;fontStyle=0;align=center;resizeLast=1;strokeColor=none;fillColor=none;collapsible=0;" vertex="1" parent="rRniwJY9JxLS7bqMXEcO-81">
          <mxGeometry y="30" width="140" height="30" as="geometry" />
        </mxCell>
        <mxCell id="rRniwJY9JxLS7bqMXEcO-131" value="" style="shape=tableRow;horizontal=0;startSize=0;swimlaneHead=0;swimlaneBody=0;fillColor=none;collapsible=0;dropTarget=0;points=[[0,0.5],[1,0.5]];portConstraint=eastwest;top=0;left=0;right=0;bottom=1;" vertex="1" parent="rRniwJY9JxLS7bqMXEcO-130">
          <mxGeometry width="140" height="30" as="geometry" />
        </mxCell>
        <mxCell id="rRniwJY9JxLS7bqMXEcO-132" value="PK" style="shape=partialRectangle;connectable=0;fillColor=none;top=0;left=0;bottom=0;right=0;fontStyle=1;overflow=hidden;" vertex="1" parent="rRniwJY9JxLS7bqMXEcO-131">
          <mxGeometry width="30" height="30" as="geometry">
            <mxRectangle width="30" height="30" as="alternateBounds" />
          </mxGeometry>
        </mxCell>
        <mxCell id="rRniwJY9JxLS7bqMXEcO-133" value="effectif (partiel)" style="shape=partialRectangle;connectable=0;fillColor=none;top=0;left=0;bottom=0;right=0;align=left;spacingLeft=6;fontStyle=5;overflow=hidden;" vertex="1" parent="rRniwJY9JxLS7bqMXEcO-131">
          <mxGeometry x="30" width="110" height="30" as="geometry">
            <mxRectangle width="110" height="30" as="alternateBounds" />
          </mxGeometry>
        </mxCell>
        <mxCell id="rRniwJY9JxLS7bqMXEcO-89" value="EMPLOYE" style="swimlane;fontStyle=0;childLayout=stackLayout;horizontal=1;startSize=30;horizontalStack=0;resizeParent=1;resizeParentMax=0;resizeLast=0;collapsible=1;marginBottom=0;whiteSpace=wrap;html=1;" vertex="1" parent="1">
          <mxGeometry x="500" y="550" width="140" height="60" as="geometry" />
        </mxCell>
        <mxCell id="rRniwJY9JxLS7bqMXEcO-90" value="" style="shape=table;startSize=0;container=1;collapsible=1;childLayout=tableLayout;fixedRows=1;rowLines=0;fontStyle=0;align=center;resizeLast=1;strokeColor=none;fillColor=none;collapsible=0;" vertex="1" parent="rRniwJY9JxLS7bqMXEcO-89">
          <mxGeometry y="30" width="140" height="30" as="geometry" />
        </mxCell>
        <mxCell id="rRniwJY9JxLS7bqMXEcO-91" value="" style="shape=tableRow;horizontal=0;startSize=0;swimlaneHead=0;swimlaneBody=0;fillColor=none;collapsible=0;dropTarget=0;points=[[0,0.5],[1,0.5]];portConstraint=eastwest;top=0;left=0;right=0;bottom=1;" vertex="1" parent="rRniwJY9JxLS7bqMXEcO-90">
          <mxGeometry width="140" height="30" as="geometry" />
        </mxCell>
        <mxCell id="rRniwJY9JxLS7bqMXEcO-92" value="PK" style="shape=partialRectangle;connectable=0;fillColor=none;top=0;left=0;bottom=0;right=0;fontStyle=1;overflow=hidden;" vertex="1" parent="rRniwJY9JxLS7bqMXEcO-91">
          <mxGeometry width="30" height="30" as="geometry">
            <mxRectangle width="30" height="30" as="alternateBounds" />
          </mxGeometry>
        </mxCell>
        <mxCell id="rRniwJY9JxLS7bqMXEcO-93" value="empID" style="shape=partialRectangle;connectable=0;fillColor=none;top=0;left=0;bottom=0;right=0;align=left;spacingLeft=6;fontStyle=5;overflow=hidden;" vertex="1" parent="rRniwJY9JxLS7bqMXEcO-91">
          <mxGeometry x="30" width="110" height="30" as="geometry">
            <mxRectangle width="110" height="30" as="alternateBounds" />
          </mxGeometry>
        </mxCell>
        <mxCell id="rRniwJY9JxLS7bqMXEcO-101" value="possede" style="endArrow=open;endSize=12;dashed=1;html=1;rounded=0;entryX=0.884;entryY=0.054;entryDx=0;entryDy=0;entryPerimeter=0;" edge="1" parent="1" source="rRniwJY9JxLS7bqMXEcO-37" target="rRniwJY9JxLS7bqMXEcO-81">
          <mxGeometry x="0.0295" y="-11" width="160" relative="1" as="geometry">
            <mxPoint x="420" y="430" as="sourcePoint" />
            <mxPoint x="580" y="430" as="targetPoint" />
            <mxPoint as="offset" />
          </mxGeometry>
        </mxCell>
        <mxCell id="rRniwJY9JxLS7bqMXEcO-112" value="1..1" style="edgeLabel;html=1;align=center;verticalAlign=middle;resizable=0;points=[];" vertex="1" connectable="0" parent="rRniwJY9JxLS7bqMXEcO-101">
          <mxGeometry x="-0.7843" y="1" relative="1" as="geometry">
            <mxPoint x="-14" as="offset" />
          </mxGeometry>
        </mxCell>
        <mxCell id="rRniwJY9JxLS7bqMXEcO-113" value="1..*" style="edgeLabel;html=1;align=center;verticalAlign=middle;resizable=0;points=[];" vertex="1" connectable="0" parent="rRniwJY9JxLS7bqMXEcO-101">
          <mxGeometry x="0.8245" y="1" relative="1" as="geometry">
            <mxPoint x="-22" y="-5" as="offset" />
          </mxGeometry>
        </mxCell>
        <mxCell id="rRniwJY9JxLS7bqMXEcO-102" value="" style="endArrow=none;html=1;rounded=0;" edge="1" parent="1" target="rRniwJY9JxLS7bqMXEcO-104">
          <mxGeometry relative="1" as="geometry">
            <mxPoint x="510" y="430" as="sourcePoint" />
            <mxPoint x="670" y="460" as="targetPoint" />
          </mxGeometry>
        </mxCell>
        <mxCell id="rRniwJY9JxLS7bqMXEcO-104" value="" style="swimlane;fontStyle=0;childLayout=stackLayout;horizontal=1;startSize=30;horizontalStack=0;resizeParent=1;resizeParentMax=0;resizeLast=0;collapsible=1;marginBottom=0;whiteSpace=wrap;html=1;" vertex="1" parent="1">
          <mxGeometry x="650" y="405" width="140" height="60" as="geometry" />
        </mxCell>
        <mxCell id="rRniwJY9JxLS7bqMXEcO-110" value="zoneGeographique" style="text;strokeColor=none;fillColor=none;align=left;verticalAlign=middle;spacingLeft=4;spacingRight=4;overflow=hidden;points=[[0,0.5],[1,0.5]];portConstraint=eastwest;rotatable=0;whiteSpace=wrap;html=1;" vertex="1" parent="rRniwJY9JxLS7bqMXEcO-104">
          <mxGeometry y="30" width="140" height="30" as="geometry" />
        </mxCell>
        <mxCell id="rRniwJY9JxLS7bqMXEcO-114" value="RESPONSABLE ENCLOS" style="swimlane;fontStyle=0;childLayout=stackLayout;horizontal=1;startSize=30;horizontalStack=0;resizeParent=1;resizeParentMax=0;resizeLast=0;collapsible=1;marginBottom=0;whiteSpace=wrap;html=1;" vertex="1" parent="1">
          <mxGeometry x="414" y="730" width="140" height="60" as="geometry" />
        </mxCell>
        <mxCell id="rRniwJY9JxLS7bqMXEcO-122" value="VETERINAIRE" style="swimlane;fontStyle=0;childLayout=stackLayout;horizontal=1;startSize=30;horizontalStack=0;resizeParent=1;resizeParentMax=0;resizeLast=0;collapsible=1;marginBottom=0;whiteSpace=wrap;html=1;" vertex="1" parent="1">
          <mxGeometry x="610" y="730" width="140" height="60" as="geometry" />
        </mxCell>
        <mxCell id="rRniwJY9JxLS7bqMXEcO-134" value="{Obligatoire, Et}" style="endArrow=block;endSize=16;endFill=0;html=1;rounded=0;" edge="1" parent="1" target="rRniwJY9JxLS7bqMXEcO-89">
          <mxGeometry y="-50" width="160" relative="1" as="geometry">
            <mxPoint x="570" y="750" as="sourcePoint" />
            <mxPoint x="510" y="700" as="targetPoint" />
            <mxPoint as="offset" />
          </mxGeometry>
        </mxCell>
        <mxCell id="rRniwJY9JxLS7bqMXEcO-136" value="" style="endArrow=none;html=1;rounded=0;exitX=1.004;exitY=0.121;exitDx=0;exitDy=0;exitPerimeter=0;" edge="1" parent="1" source="rRniwJY9JxLS7bqMXEcO-114">
          <mxGeometry relative="1" as="geometry">
            <mxPoint x="350" y="700" as="sourcePoint" />
            <mxPoint x="570" y="750" as="targetPoint" />
          </mxGeometry>
        </mxCell>
        <mxCell id="rRniwJY9JxLS7bqMXEcO-137" value="" style="endArrow=none;html=1;rounded=0;entryX=-0.008;entryY=0.127;entryDx=0;entryDy=0;entryPerimeter=0;" edge="1" parent="1" target="rRniwJY9JxLS7bqMXEcO-122">
          <mxGeometry relative="1" as="geometry">
            <mxPoint x="570" y="750" as="sourcePoint" />
            <mxPoint x="580" y="760" as="targetPoint" />
          </mxGeometry>
        </mxCell>
        <mxCell id="rRniwJY9JxLS7bqMXEcO-138" value="BESOINS ALIMENTAIRES" style="swimlane;fontStyle=0;childLayout=stackLayout;horizontal=1;startSize=30;horizontalStack=0;resizeParent=1;resizeParentMax=0;resizeLast=0;collapsible=1;marginBottom=0;whiteSpace=wrap;html=1;" vertex="1" parent="1">
          <mxGeometry x="170" y="460" width="140" height="60" as="geometry" />
        </mxCell>
        <mxCell id="rRniwJY9JxLS7bqMXEcO-146" value="" style="endArrow=open;endFill=1;endSize=12;html=1;rounded=0;" edge="1" parent="1" source="rRniwJY9JxLS7bqMXEcO-37" target="rRniwJY9JxLS7bqMXEcO-138">
          <mxGeometry width="160" relative="1" as="geometry">
            <mxPoint x="430" y="630" as="sourcePoint" />
            <mxPoint x="590" y="630" as="targetPoint" />
            <Array as="points" />
          </mxGeometry>
        </mxCell>
        <mxCell id="rRniwJY9JxLS7bqMXEcO-147" value="possede" style="edgeLabel;html=1;align=center;verticalAlign=middle;resizable=0;points=[];" vertex="1" connectable="0" parent="rRniwJY9JxLS7bqMXEcO-146">
          <mxGeometry x="0.0087" y="-3" relative="1" as="geometry">
            <mxPoint as="offset" />
          </mxGeometry>
        </mxCell>
        <mxCell id="rRniwJY9JxLS7bqMXEcO-166" value="1..*" style="edgeLabel;html=1;align=center;verticalAlign=middle;resizable=0;points=[];" vertex="1" connectable="0" parent="rRniwJY9JxLS7bqMXEcO-146">
          <mxGeometry x="-0.7385" y="8" relative="1" as="geometry">
            <mxPoint as="offset" />
          </mxGeometry>
        </mxCell>
        <mxCell id="rRniwJY9JxLS7bqMXEcO-167" value="1..1" style="edgeLabel;html=1;align=center;verticalAlign=middle;resizable=0;points=[];" vertex="1" connectable="0" parent="rRniwJY9JxLS7bqMXEcO-146">
          <mxGeometry x="0.5095" y="8" relative="1" as="geometry">
            <mxPoint as="offset" />
          </mxGeometry>
        </mxCell>
        <mxCell id="rRniwJY9JxLS7bqMXEcO-148" value="ALIMENT" style="swimlane;fontStyle=0;childLayout=stackLayout;horizontal=1;startSize=30;horizontalStack=0;resizeParent=1;resizeParentMax=0;resizeLast=0;collapsible=1;marginBottom=0;whiteSpace=wrap;html=1;" vertex="1" parent="1">
          <mxGeometry x="170" y="610" width="140" height="60" as="geometry" />
        </mxCell>
        <mxCell id="rRniwJY9JxLS7bqMXEcO-149" value="" style="shape=table;startSize=0;container=1;collapsible=1;childLayout=tableLayout;fixedRows=1;rowLines=0;fontStyle=0;align=center;resizeLast=1;strokeColor=none;fillColor=none;collapsible=0;" vertex="1" parent="rRniwJY9JxLS7bqMXEcO-148">
          <mxGeometry y="30" width="140" height="30" as="geometry" />
        </mxCell>
        <mxCell id="rRniwJY9JxLS7bqMXEcO-150" value="" style="shape=tableRow;horizontal=0;startSize=0;swimlaneHead=0;swimlaneBody=0;fillColor=none;collapsible=0;dropTarget=0;points=[[0,0.5],[1,0.5]];portConstraint=eastwest;top=0;left=0;right=0;bottom=1;" vertex="1" parent="rRniwJY9JxLS7bqMXEcO-149">
          <mxGeometry width="140" height="30" as="geometry" />
        </mxCell>
        <mxCell id="rRniwJY9JxLS7bqMXEcO-151" value="PK" style="shape=partialRectangle;connectable=0;fillColor=none;top=0;left=0;bottom=0;right=0;fontStyle=1;overflow=hidden;" vertex="1" parent="rRniwJY9JxLS7bqMXEcO-150">
          <mxGeometry width="30" height="30" as="geometry">
            <mxRectangle width="30" height="30" as="alternateBounds" />
          </mxGeometry>
        </mxCell>
        <mxCell id="rRniwJY9JxLS7bqMXEcO-152" value="nom" style="shape=partialRectangle;connectable=0;fillColor=none;top=0;left=0;bottom=0;right=0;align=left;spacingLeft=6;fontStyle=5;overflow=hidden;" vertex="1" parent="rRniwJY9JxLS7bqMXEcO-150">
          <mxGeometry x="30" width="110" height="30" as="geometry">
            <mxRectangle width="110" height="30" as="alternateBounds" />
          </mxGeometry>
        </mxCell>
        <mxCell id="rRniwJY9JxLS7bqMXEcO-158" value="CATALOGUE" style="swimlane;fontStyle=0;childLayout=stackLayout;horizontal=1;startSize=30;horizontalStack=0;resizeParent=1;resizeParentMax=0;resizeLast=0;collapsible=1;marginBottom=0;whiteSpace=wrap;html=1;" vertex="1" parent="1">
          <mxGeometry x="170" y="810" width="140" height="60" as="geometry" />
        </mxCell>
        <mxCell id="rRniwJY9JxLS7bqMXEcO-159" value="" style="shape=table;startSize=0;container=1;collapsible=1;childLayout=tableLayout;fixedRows=1;rowLines=0;fontStyle=0;align=center;resizeLast=1;strokeColor=none;fillColor=none;collapsible=0;" vertex="1" parent="rRniwJY9JxLS7bqMXEcO-158">
          <mxGeometry y="30" width="140" height="30" as="geometry" />
        </mxCell>
        <mxCell id="rRniwJY9JxLS7bqMXEcO-160" value="" style="shape=tableRow;horizontal=0;startSize=0;swimlaneHead=0;swimlaneBody=0;fillColor=none;collapsible=0;dropTarget=0;points=[[0,0.5],[1,0.5]];portConstraint=eastwest;top=0;left=0;right=0;bottom=1;" vertex="1" parent="rRniwJY9JxLS7bqMXEcO-159">
          <mxGeometry width="140" height="30" as="geometry" />
        </mxCell>
        <mxCell id="rRniwJY9JxLS7bqMXEcO-161" value="PK" style="shape=partialRectangle;connectable=0;fillColor=none;top=0;left=0;bottom=0;right=0;fontStyle=1;overflow=hidden;" vertex="1" parent="rRniwJY9JxLS7bqMXEcO-160">
          <mxGeometry width="40" height="30" as="geometry">
            <mxRectangle width="40" height="30" as="alternateBounds" />
          </mxGeometry>
        </mxCell>
        <mxCell id="rRniwJY9JxLS7bqMXEcO-162" value="UniqueID" style="shape=partialRectangle;connectable=0;fillColor=none;top=0;left=0;bottom=0;right=0;align=left;spacingLeft=6;fontStyle=5;overflow=hidden;" vertex="1" parent="rRniwJY9JxLS7bqMXEcO-160">
          <mxGeometry x="40" width="100" height="30" as="geometry">
            <mxRectangle width="100" height="30" as="alternateBounds" />
          </mxGeometry>
        </mxCell>
        <mxCell id="rRniwJY9JxLS7bqMXEcO-174" value="possede" style="endArrow=open;endSize=12;dashed=1;html=1;rounded=0;" edge="1" parent="1" source="rRniwJY9JxLS7bqMXEcO-158" target="rRniwJY9JxLS7bqMXEcO-148">
          <mxGeometry x="0.0267" y="-11" width="160" relative="1" as="geometry">
            <mxPoint x="260" y="700.0048802946592" as="sourcePoint" />
            <mxPoint x="363.76" y="785.54" as="targetPoint" />
            <mxPoint as="offset" />
            <Array as="points" />
          </mxGeometry>
        </mxCell>
        <mxCell id="rRniwJY9JxLS7bqMXEcO-175" value="1..1" style="edgeLabel;html=1;align=center;verticalAlign=middle;resizable=0;points=[];" vertex="1" connectable="0" parent="rRniwJY9JxLS7bqMXEcO-174">
          <mxGeometry x="-0.7843" y="1" relative="1" as="geometry">
            <mxPoint x="-14" as="offset" />
          </mxGeometry>
        </mxCell>
        <mxCell id="rRniwJY9JxLS7bqMXEcO-176" value="0..*" style="edgeLabel;html=1;align=center;verticalAlign=middle;resizable=0;points=[];" vertex="1" connectable="0" parent="rRniwJY9JxLS7bqMXEcO-174">
          <mxGeometry x="0.8245" y="1" relative="1" as="geometry">
            <mxPoint x="-22" y="-5" as="offset" />
          </mxGeometry>
        </mxCell>
        <mxCell id="rRniwJY9JxLS7bqMXEcO-177" value="possede" style="endArrow=open;endSize=12;dashed=1;html=1;rounded=0;" edge="1" parent="1" source="rRniwJY9JxLS7bqMXEcO-138" target="rRniwJY9JxLS7bqMXEcO-148">
          <mxGeometry x="0.0295" y="-11" width="160" relative="1" as="geometry">
            <mxPoint x="380" y="570" as="sourcePoint" />
            <mxPoint x="400" y="530" as="targetPoint" />
            <mxPoint as="offset" />
            <Array as="points" />
          </mxGeometry>
        </mxCell>
        <mxCell id="rRniwJY9JxLS7bqMXEcO-178" value="0..*" style="edgeLabel;html=1;align=center;verticalAlign=middle;resizable=0;points=[];" vertex="1" connectable="0" parent="rRniwJY9JxLS7bqMXEcO-177">
          <mxGeometry x="-0.7843" y="1" relative="1" as="geometry">
            <mxPoint x="-14" as="offset" />
          </mxGeometry>
        </mxCell>
        <mxCell id="rRniwJY9JxLS7bqMXEcO-179" value="1..*" style="edgeLabel;html=1;align=center;verticalAlign=middle;resizable=0;points=[];" vertex="1" connectable="0" parent="rRniwJY9JxLS7bqMXEcO-177">
          <mxGeometry x="0.8245" y="1" relative="1" as="geometry">
            <mxPoint x="-22" y="-5" as="offset" />
          </mxGeometry>
        </mxCell>
        <mxCell id="rRniwJY9JxLS7bqMXEcO-180" value="" style="endArrow=none;html=1;rounded=0;" edge="1" parent="1" target="rRniwJY9JxLS7bqMXEcO-181">
          <mxGeometry relative="1" as="geometry">
            <mxPoint x="240" y="560" as="sourcePoint" />
            <mxPoint x="320" y="610" as="targetPoint" />
          </mxGeometry>
        </mxCell>
        <mxCell id="rRniwJY9JxLS7bqMXEcO-181" value="" style="swimlane;fontStyle=0;childLayout=stackLayout;horizontal=1;startSize=30;horizontalStack=0;resizeParent=1;resizeParentMax=0;resizeLast=0;collapsible=1;marginBottom=0;whiteSpace=wrap;html=1;" vertex="1" parent="1">
          <mxGeometry x="300" y="525" width="100" height="60" as="geometry" />
        </mxCell>
        <mxCell id="rRniwJY9JxLS7bqMXEcO-182" value="quantité" style="text;strokeColor=none;fillColor=none;align=left;verticalAlign=middle;spacingLeft=4;spacingRight=4;overflow=hidden;points=[[0,0.5],[1,0.5]];portConstraint=eastwest;rotatable=0;whiteSpace=wrap;html=1;" vertex="1" parent="rRniwJY9JxLS7bqMXEcO-181">
          <mxGeometry y="30" width="100" height="30" as="geometry" />
        </mxCell>
        <mxCell id="rRniwJY9JxLS7bqMXEcO-189" value="" style="swimlane;fontStyle=0;childLayout=stackLayout;horizontal=1;startSize=30;horizontalStack=0;resizeParent=1;resizeParentMax=0;resizeLast=0;collapsible=1;marginBottom=0;whiteSpace=wrap;html=1;" vertex="1" parent="1">
          <mxGeometry x="300" y="710" width="100" height="60" as="geometry" />
        </mxCell>
        <mxCell id="rRniwJY9JxLS7bqMXEcO-190" value="quantité" style="text;strokeColor=none;fillColor=none;align=left;verticalAlign=middle;spacingLeft=4;spacingRight=4;overflow=hidden;points=[[0,0.5],[1,0.5]];portConstraint=eastwest;rotatable=0;whiteSpace=wrap;html=1;" vertex="1" parent="rRniwJY9JxLS7bqMXEcO-189">
          <mxGeometry y="30" width="100" height="30" as="geometry" />
        </mxCell>
        <mxCell id="rRniwJY9JxLS7bqMXEcO-191" value="" style="endArrow=none;html=1;rounded=0;" edge="1" parent="1">
          <mxGeometry relative="1" as="geometry">
            <mxPoint x="240" y="730" as="sourcePoint" />
            <mxPoint x="300" y="727.2727272727273" as="targetPoint" />
            <Array as="points">
              <mxPoint x="300" y="727" />
            </Array>
          </mxGeometry>
        </mxCell>
        <mxCell id="rRniwJY9JxLS7bqMXEcO-192" value="" style="endArrow=open;endFill=1;endSize=12;html=1;rounded=0;" edge="1" parent="1" source="rRniwJY9JxLS7bqMXEcO-23" target="rRniwJY9JxLS7bqMXEcO-47">
          <mxGeometry width="160" relative="1" as="geometry">
            <mxPoint x="210" y="370" as="sourcePoint" />
            <mxPoint x="370" y="370" as="targetPoint" />
            <Array as="points">
              <mxPoint x="120" y="430" />
            </Array>
          </mxGeometry>
        </mxCell>
        <mxCell id="rRniwJY9JxLS7bqMXEcO-193" value="0..*" style="edgeLabel;html=1;align=center;verticalAlign=middle;resizable=0;points=[];" vertex="1" connectable="0" parent="rRniwJY9JxLS7bqMXEcO-192">
          <mxGeometry x="-0.7102" y="-2" relative="1" as="geometry">
            <mxPoint x="-7" y="-65" as="offset" />
          </mxGeometry>
        </mxCell>
        <mxCell id="rRniwJY9JxLS7bqMXEcO-194" value="1..1" style="edgeLabel;html=1;align=center;verticalAlign=middle;resizable=0;points=[];" vertex="1" connectable="0" parent="rRniwJY9JxLS7bqMXEcO-192">
          <mxGeometry x="0.5896" y="-7" relative="1" as="geometry">
            <mxPoint x="-29" y="80" as="offset" />
          </mxGeometry>
        </mxCell>
        <mxCell id="rRniwJY9JxLS7bqMXEcO-197" value="habite dans" style="text;html=1;align=center;verticalAlign=middle;resizable=0;points=[];autosize=1;strokeColor=none;fillColor=none;" vertex="1" parent="1">
          <mxGeometry x="20" y="565" width="90" height="30" as="geometry" />
        </mxCell>
        <mxCell id="rRniwJY9JxLS7bqMXEcO-198" value="" style="endArrow=open;endFill=1;endSize=12;html=1;rounded=0;" edge="1" parent="1" source="rRniwJY9JxLS7bqMXEcO-114" target="rRniwJY9JxLS7bqMXEcO-47">
          <mxGeometry width="160" relative="1" as="geometry">
            <mxPoint x="210" y="620" as="sourcePoint" />
            <mxPoint x="370" y="620" as="targetPoint" />
            <Array as="points">
              <mxPoint x="340" y="930" />
            </Array>
          </mxGeometry>
        </mxCell>
        <mxCell id="rRniwJY9JxLS7bqMXEcO-199" value="responsable&amp;nbsp;" style="edgeLabel;html=1;align=center;verticalAlign=middle;resizable=0;points=[];" vertex="1" connectable="0" parent="rRniwJY9JxLS7bqMXEcO-198">
          <mxGeometry x="-0.1755" y="1" relative="1" as="geometry">
            <mxPoint x="26" y="-3" as="offset" />
          </mxGeometry>
        </mxCell>
        <mxCell id="rRniwJY9JxLS7bqMXEcO-200" value="1..*" style="edgeLabel;html=1;align=center;verticalAlign=middle;resizable=0;points=[];" vertex="1" connectable="0" parent="rRniwJY9JxLS7bqMXEcO-198">
          <mxGeometry x="-0.8983" y="2" relative="1" as="geometry">
            <mxPoint x="22" y="-5" as="offset" />
          </mxGeometry>
        </mxCell>
        <mxCell id="rRniwJY9JxLS7bqMXEcO-201" value="1..*" style="edgeLabel;html=1;align=center;verticalAlign=middle;resizable=0;points=[];" vertex="1" connectable="0" parent="rRniwJY9JxLS7bqMXEcO-198">
          <mxGeometry x="0.9114" relative="1" as="geometry">
            <mxPoint as="offset" />
          </mxGeometry>
        </mxCell>
        <mxCell id="rRniwJY9JxLS7bqMXEcO-203" value="est substitut de" style="endArrow=open;endSize=12;dashed=1;html=1;rounded=0;" edge="1" parent="1" source="rRniwJY9JxLS7bqMXEcO-148" target="rRniwJY9JxLS7bqMXEcO-148">
          <mxGeometry x="0.1079" y="20" width="160" relative="1" as="geometry">
            <mxPoint x="334" y="639.5" as="sourcePoint" />
            <mxPoint x="420" y="630" as="targetPoint" />
            <Array as="points">
              <mxPoint x="360" y="600" />
            </Array>
            <mxPoint as="offset" />
          </mxGeometry>
        </mxCell>
        <mxCell id="rRniwJY9JxLS7bqMXEcO-204" value="0..*" style="edgeLabel;html=1;align=center;verticalAlign=middle;resizable=0;points=[];" vertex="1" connectable="0" parent="rRniwJY9JxLS7bqMXEcO-203">
          <mxGeometry x="-0.8774" y="-2" relative="1" as="geometry">
            <mxPoint as="offset" />
          </mxGeometry>
        </mxCell>
        <mxCell id="rRniwJY9JxLS7bqMXEcO-205" value="0..*" style="edgeLabel;html=1;align=center;verticalAlign=middle;resizable=0;points=[];" vertex="1" connectable="0" parent="rRniwJY9JxLS7bqMXEcO-203">
          <mxGeometry x="0.7017" y="9" relative="1" as="geometry">
            <mxPoint as="offset" />
          </mxGeometry>
        </mxCell>
      </root>
    </mxGraphModel>
  </diagram>
</mxfile>
